<svg width="339" height="16" viewBox="0 0 339 16" fill="none" xmlns="http://www.w3.org/2000/svg">
<line y1="8.5" x2="83" y2="8.5" stroke="#2F3846"/>
<line x1="256" y1="8.5" x2="339" y2="8.5" stroke="#2F3846"/>
<circle cx="88.5" cy="8.5" r="2.5" stroke="#2F3846"/>
<circle cx="250.5" cy="8.5" r="2.5" stroke="#2F3846"/>
<path d="M120.174 5.902C120.126 5.986 120.074 6.048 120.018 6.088C119.966 6.124 119.9 6.142 119.82 6.142C119.736 6.142 119.644 6.112 119.544 6.052C119.448 5.988 119.332 5.918 119.196 5.842C119.06 5.766 118.9 5.698 118.716 5.638C118.536 5.574 118.322 5.542 118.074 5.542C117.85 5.542 117.654 5.57 117.486 5.626C117.318 5.678 117.176 5.752 117.06 5.848C116.948 5.944 116.864 6.06 116.808 6.196C116.752 6.328 116.724 6.474 116.724 6.634C116.724 6.838 116.78 7.008 116.892 7.144C117.008 7.28 117.16 7.396 117.348 7.492C117.536 7.588 117.75 7.674 117.99 7.75C118.23 7.826 118.476 7.908 118.728 7.996C118.98 8.08 119.226 8.18 119.466 8.296C119.706 8.408 119.92 8.552 120.108 8.728C120.296 8.9 120.446 9.112 120.558 9.364C120.674 9.616 120.732 9.922 120.732 10.282C120.732 10.674 120.664 11.042 120.528 11.386C120.396 11.726 120.2 12.024 119.94 12.28C119.684 12.532 119.37 12.732 118.998 12.88C118.626 13.024 118.2 13.096 117.72 13.096C117.444 13.096 117.172 13.068 116.904 13.012C116.636 12.96 116.378 12.884 116.13 12.784C115.886 12.684 115.656 12.564 115.44 12.424C115.224 12.284 115.032 12.128 114.864 11.956L115.338 11.182C115.378 11.126 115.43 11.08 115.494 11.044C115.558 11.004 115.626 10.984 115.698 10.984C115.798 10.984 115.906 11.026 116.022 11.11C116.138 11.19 116.276 11.28 116.436 11.38C116.596 11.48 116.782 11.572 116.994 11.656C117.21 11.736 117.468 11.776 117.768 11.776C118.228 11.776 118.584 11.668 118.836 11.452C119.088 11.232 119.214 10.918 119.214 10.51C119.214 10.282 119.156 10.096 119.04 9.952C118.928 9.808 118.778 9.688 118.59 9.592C118.402 9.492 118.188 9.408 117.948 9.34C117.708 9.272 117.464 9.198 117.216 9.118C116.968 9.038 116.724 8.942 116.484 8.83C116.244 8.718 116.03 8.572 115.842 8.392C115.654 8.212 115.502 7.988 115.386 7.72C115.274 7.448 115.218 7.114 115.218 6.718C115.218 6.402 115.28 6.094 115.404 5.794C115.532 5.494 115.716 5.228 115.956 4.996C116.196 4.764 116.492 4.578 116.844 4.438C117.196 4.298 117.6 4.228 118.056 4.228C118.568 4.228 119.04 4.308 119.472 4.468C119.904 4.628 120.272 4.852 120.576 5.14L120.174 5.902ZM129.454 4.324V13H127.834V9.208H123.76V13H122.14V4.324H123.76V8.056H127.834V4.324H129.454ZM139.66 8.662C139.66 9.298 139.554 9.888 139.342 10.432C139.134 10.972 138.838 11.44 138.454 11.836C138.07 12.232 137.608 12.542 137.068 12.766C136.528 12.986 135.928 13.096 135.268 13.096C134.612 13.096 134.014 12.986 133.474 12.766C132.934 12.542 132.47 12.232 132.082 11.836C131.698 11.44 131.4 10.972 131.188 10.432C130.976 9.888 130.87 9.298 130.87 8.662C130.87 8.026 130.976 7.438 131.188 6.898C131.4 6.354 131.698 5.884 132.082 5.488C132.47 5.092 132.934 4.784 133.474 4.564C134.014 4.34 134.612 4.228 135.268 4.228C135.708 4.228 136.122 4.28 136.51 4.384C136.898 4.484 137.254 4.628 137.578 4.816C137.902 5 138.192 5.226 138.448 5.494C138.708 5.758 138.928 6.054 139.108 6.382C139.288 6.71 139.424 7.066 139.516 7.45C139.612 7.834 139.66 8.238 139.66 8.662ZM138.01 8.662C138.01 8.186 137.946 7.76 137.818 7.384C137.69 7.004 137.508 6.682 137.272 6.418C137.036 6.154 136.748 5.952 136.408 5.812C136.072 5.672 135.692 5.602 135.268 5.602C134.844 5.602 134.462 5.672 134.122 5.812C133.786 5.952 133.498 6.154 133.258 6.418C133.022 6.682 132.84 7.004 132.712 7.384C132.584 7.76 132.52 8.186 132.52 8.662C132.52 9.138 132.584 9.566 132.712 9.946C132.84 10.322 133.022 10.642 133.258 10.906C133.498 11.166 133.786 11.366 134.122 11.506C134.462 11.646 134.844 11.716 135.268 11.716C135.692 11.716 136.072 11.646 136.408 11.506C136.748 11.366 137.036 11.166 137.272 10.906C137.508 10.642 137.69 10.322 137.818 9.946C137.946 9.566 138.01 9.138 138.01 8.662ZM152.446 4.324L149.752 13H148.294L146.398 7.072C146.346 6.928 146.298 6.752 146.254 6.544C146.23 6.644 146.206 6.738 146.182 6.826C146.158 6.914 146.132 6.996 146.104 7.072L144.19 13H142.726L140.038 4.324H141.388C141.528 4.324 141.644 4.358 141.736 4.426C141.832 4.49 141.896 4.578 141.928 4.69L143.404 9.88C143.436 10.008 143.466 10.148 143.494 10.3C143.526 10.448 143.558 10.604 143.59 10.768C143.622 10.6 143.656 10.442 143.692 10.294C143.732 10.146 143.774 10.008 143.818 9.88L145.522 4.69C145.554 4.598 145.616 4.514 145.708 4.438C145.804 4.362 145.92 4.324 146.056 4.324H146.53C146.67 4.324 146.784 4.358 146.872 4.426C146.96 4.494 147.026 4.582 147.07 4.69L148.768 9.88C148.852 10.128 148.928 10.414 148.996 10.738C149.048 10.422 149.106 10.136 149.17 9.88L150.646 4.69C150.67 4.59 150.73 4.504 150.826 4.432C150.926 4.36 151.044 4.324 151.18 4.324H152.446ZM162.305 10.954C162.393 10.954 162.471 10.988 162.539 11.056L163.175 11.746C162.823 12.182 162.389 12.516 161.873 12.748C161.361 12.98 160.745 13.096 160.025 13.096C159.381 13.096 158.801 12.986 158.285 12.766C157.773 12.546 157.335 12.24 156.971 11.848C156.607 11.456 156.327 10.988 156.131 10.444C155.939 9.9 155.843 9.306 155.843 8.662C155.843 8.01 155.947 7.414 156.155 6.874C156.363 6.33 156.655 5.862 157.031 5.47C157.411 5.078 157.863 4.774 158.387 4.558C158.911 4.338 159.491 4.228 160.127 4.228C160.759 4.228 161.319 4.332 161.807 4.54C162.299 4.748 162.717 5.02 163.061 5.356L162.521 6.106C162.489 6.154 162.447 6.196 162.395 6.232C162.347 6.268 162.279 6.286 162.191 6.286C162.131 6.286 162.069 6.27 162.005 6.238C161.941 6.202 161.871 6.16 161.795 6.112C161.719 6.06 161.631 6.004 161.531 5.944C161.431 5.884 161.315 5.83 161.183 5.782C161.051 5.73 160.897 5.688 160.721 5.656C160.549 5.62 160.349 5.602 160.121 5.602C159.733 5.602 159.377 5.672 159.053 5.812C158.733 5.948 158.457 6.148 158.225 6.412C157.993 6.672 157.813 6.992 157.685 7.372C157.557 7.748 157.493 8.178 157.493 8.662C157.493 9.15 157.561 9.584 157.697 9.964C157.837 10.344 158.025 10.664 158.261 10.924C158.497 11.184 158.775 11.384 159.095 11.524C159.415 11.66 159.759 11.728 160.127 11.728C160.347 11.728 160.545 11.716 160.721 11.692C160.901 11.668 161.065 11.63 161.213 11.578C161.365 11.526 161.507 11.46 161.639 11.38C161.775 11.296 161.909 11.194 162.041 11.074C162.081 11.038 162.123 11.01 162.167 10.99C162.211 10.966 162.257 10.954 162.305 10.954ZM172.367 8.662C172.367 9.298 172.261 9.888 172.049 10.432C171.841 10.972 171.545 11.44 171.161 11.836C170.777 12.232 170.315 12.542 169.775 12.766C169.235 12.986 168.635 13.096 167.975 13.096C167.319 13.096 166.721 12.986 166.181 12.766C165.641 12.542 165.177 12.232 164.789 11.836C164.405 11.44 164.107 10.972 163.895 10.432C163.683 9.888 163.577 9.298 163.577 8.662C163.577 8.026 163.683 7.438 163.895 6.898C164.107 6.354 164.405 5.884 164.789 5.488C165.177 5.092 165.641 4.784 166.181 4.564C166.721 4.34 167.319 4.228 167.975 4.228C168.415 4.228 168.829 4.28 169.217 4.384C169.605 4.484 169.961 4.628 170.285 4.816C170.609 5 170.899 5.226 171.155 5.494C171.415 5.758 171.635 6.054 171.815 6.382C171.995 6.71 172.131 7.066 172.223 7.45C172.319 7.834 172.367 8.238 172.367 8.662ZM170.717 8.662C170.717 8.186 170.653 7.76 170.525 7.384C170.397 7.004 170.215 6.682 169.979 6.418C169.743 6.154 169.455 5.952 169.115 5.812C168.779 5.672 168.399 5.602 167.975 5.602C167.551 5.602 167.169 5.672 166.829 5.812C166.493 5.952 166.205 6.154 165.965 6.418C165.729 6.682 165.547 7.004 165.419 7.384C165.291 7.76 165.227 8.186 165.227 8.662C165.227 9.138 165.291 9.566 165.419 9.946C165.547 10.322 165.729 10.642 165.965 10.906C166.205 11.166 166.493 11.366 166.829 11.506C167.169 11.646 167.551 11.716 167.975 11.716C168.399 11.716 168.779 11.646 169.115 11.506C169.455 11.366 169.743 11.166 169.979 10.906C170.215 10.642 170.397 10.322 170.525 9.946C170.653 9.566 170.717 9.138 170.717 8.662ZM183.192 4.324V13H181.77V7.396C181.77 7.172 181.782 6.93 181.806 6.67L179.184 11.596C179.06 11.832 178.87 11.95 178.614 11.95H178.386C178.13 11.95 177.94 11.832 177.816 11.596L175.164 6.652C175.176 6.784 175.186 6.914 175.194 7.042C175.202 7.17 175.206 7.288 175.206 7.396V13H173.784V4.324H175.002C175.074 4.324 175.136 4.326 175.188 4.33C175.24 4.334 175.286 4.344 175.326 4.36C175.37 4.376 175.408 4.402 175.44 4.438C175.476 4.474 175.51 4.522 175.542 4.582L178.14 9.4C178.208 9.528 178.27 9.66 178.326 9.796C178.386 9.932 178.444 10.072 178.5 10.216C178.556 10.068 178.614 9.926 178.674 9.79C178.734 9.65 178.798 9.516 178.866 9.388L181.428 4.582C181.46 4.522 181.494 4.474 181.53 4.438C181.566 4.402 181.604 4.376 181.644 4.36C181.688 4.344 181.736 4.334 181.788 4.33C181.84 4.326 181.902 4.324 181.974 4.324H183.192ZM194.536 4.324V13H193.114V7.396C193.114 7.172 193.126 6.93 193.15 6.67L190.528 11.596C190.404 11.832 190.214 11.95 189.958 11.95H189.73C189.474 11.95 189.284 11.832 189.16 11.596L186.508 6.652C186.52 6.784 186.53 6.914 186.538 7.042C186.546 7.17 186.55 7.288 186.55 7.396V13H185.128V4.324H186.346C186.418 4.324 186.48 4.326 186.532 4.33C186.584 4.334 186.63 4.344 186.67 4.36C186.714 4.376 186.752 4.402 186.784 4.438C186.82 4.474 186.854 4.522 186.886 4.582L189.484 9.4C189.552 9.528 189.614 9.66 189.67 9.796C189.73 9.932 189.788 10.072 189.844 10.216C189.9 10.068 189.958 9.926 190.018 9.79C190.078 9.65 190.142 9.516 190.21 9.388L192.772 4.582C192.804 4.522 192.838 4.474 192.874 4.438C192.91 4.402 192.948 4.376 192.988 4.36C193.032 4.344 193.08 4.334 193.132 4.33C193.184 4.326 193.246 4.324 193.318 4.324H194.536ZM198.092 5.608V8.014H201.128V9.256H198.092V11.71H201.944V13H196.472V4.324H201.944V5.608H198.092ZM210.688 4.324V13H209.86C209.732 13 209.624 12.98 209.536 12.94C209.452 12.896 209.37 12.824 209.29 12.724L204.76 6.94C204.784 7.204 204.796 7.448 204.796 7.672V13H203.374V4.324H204.22C204.288 4.324 204.346 4.328 204.394 4.336C204.446 4.34 204.49 4.352 204.526 4.372C204.566 4.388 204.604 4.414 204.64 4.45C204.676 4.482 204.716 4.526 204.76 4.582L209.308 10.39C209.296 10.25 209.286 10.112 209.278 9.976C209.27 9.84 209.266 9.714 209.266 9.598V4.324H210.688ZM218.68 5.65H216.064V13H214.45V5.65H211.834V4.324H218.68V5.65ZM224.412 5.902C224.364 5.986 224.312 6.048 224.256 6.088C224.204 6.124 224.138 6.142 224.058 6.142C223.974 6.142 223.882 6.112 223.782 6.052C223.686 5.988 223.57 5.918 223.434 5.842C223.298 5.766 223.138 5.698 222.954 5.638C222.774 5.574 222.56 5.542 222.312 5.542C222.088 5.542 221.892 5.57 221.724 5.626C221.556 5.678 221.414 5.752 221.298 5.848C221.186 5.944 221.102 6.06 221.046 6.196C220.99 6.328 220.962 6.474 220.962 6.634C220.962 6.838 221.018 7.008 221.13 7.144C221.246 7.28 221.398 7.396 221.586 7.492C221.774 7.588 221.988 7.674 222.228 7.75C222.468 7.826 222.714 7.908 222.966 7.996C223.218 8.08 223.464 8.18 223.704 8.296C223.944 8.408 224.158 8.552 224.346 8.728C224.534 8.9 224.684 9.112 224.796 9.364C224.912 9.616 224.97 9.922 224.97 10.282C224.97 10.674 224.902 11.042 224.766 11.386C224.634 11.726 224.438 12.024 224.178 12.28C223.922 12.532 223.608 12.732 223.236 12.88C222.864 13.024 222.438 13.096 221.958 13.096C221.682 13.096 221.41 13.068 221.142 13.012C220.874 12.96 220.616 12.884 220.368 12.784C220.124 12.684 219.894 12.564 219.678 12.424C219.462 12.284 219.27 12.128 219.102 11.956L219.576 11.182C219.616 11.126 219.668 11.08 219.732 11.044C219.796 11.004 219.864 10.984 219.936 10.984C220.036 10.984 220.144 11.026 220.26 11.11C220.376 11.19 220.514 11.28 220.674 11.38C220.834 11.48 221.02 11.572 221.232 11.656C221.448 11.736 221.706 11.776 222.006 11.776C222.466 11.776 222.822 11.668 223.074 11.452C223.326 11.232 223.452 10.918 223.452 10.51C223.452 10.282 223.394 10.096 223.278 9.952C223.166 9.808 223.016 9.688 222.828 9.592C222.64 9.492 222.426 9.408 222.186 9.34C221.946 9.272 221.702 9.198 221.454 9.118C221.206 9.038 220.962 8.942 220.722 8.83C220.482 8.718 220.268 8.572 220.08 8.392C219.892 8.212 219.74 7.988 219.624 7.72C219.512 7.448 219.456 7.114 219.456 6.718C219.456 6.402 219.518 6.094 219.642 5.794C219.77 5.494 219.954 5.228 220.194 4.996C220.434 4.764 220.73 4.578 221.082 4.438C221.434 4.298 221.838 4.228 222.294 4.228C222.806 4.228 223.278 4.308 223.71 4.468C224.142 4.628 224.51 4.852 224.814 5.14L224.412 5.902Z" fill="#2F3846"/>
</svg>
