<svg width="359" height="16" viewBox="0 0 359 16" fill="none" xmlns="http://www.w3.org/2000/svg">
<line y1="8.5" x2="83" y2="8.5" stroke="#2F3846"/>
<line x1="276" y1="8.5" x2="359" y2="8.5" stroke="#2F3846"/>
<circle cx="88.5" cy="8.5" r="2.5" stroke="#2F3846"/>
<circle cx="270.5" cy="8.5" r="2.5" stroke="#2F3846"/>
<path d="M109.891 5.902C109.843 5.986 109.791 6.048 109.735 6.088C109.683 6.124 109.617 6.142 109.537 6.142C109.453 6.142 109.361 6.112 109.261 6.052C109.165 5.988 109.049 5.918 108.913 5.842C108.777 5.766 108.617 5.698 108.433 5.638C108.253 5.574 108.039 5.542 107.791 5.542C107.567 5.542 107.371 5.57 107.203 5.626C107.035 5.678 106.893 5.752 106.777 5.848C106.665 5.944 106.581 6.06 106.525 6.196C106.469 6.328 106.441 6.474 106.441 6.634C106.441 6.838 106.497 7.008 106.609 7.144C106.725 7.28 106.877 7.396 107.065 7.492C107.253 7.588 107.467 7.674 107.707 7.75C107.947 7.826 108.193 7.908 108.445 7.996C108.697 8.08 108.943 8.18 109.183 8.296C109.423 8.408 109.637 8.552 109.825 8.728C110.013 8.9 110.163 9.112 110.275 9.364C110.391 9.616 110.449 9.922 110.449 10.282C110.449 10.674 110.381 11.042 110.245 11.386C110.113 11.726 109.917 12.024 109.657 12.28C109.401 12.532 109.087 12.732 108.715 12.88C108.343 13.024 107.917 13.096 107.437 13.096C107.161 13.096 106.889 13.068 106.621 13.012C106.353 12.96 106.095 12.884 105.847 12.784C105.603 12.684 105.373 12.564 105.157 12.424C104.941 12.284 104.749 12.128 104.581 11.956L105.055 11.182C105.095 11.126 105.147 11.08 105.211 11.044C105.275 11.004 105.343 10.984 105.415 10.984C105.515 10.984 105.623 11.026 105.739 11.11C105.855 11.19 105.993 11.28 106.153 11.38C106.313 11.48 106.499 11.572 106.711 11.656C106.927 11.736 107.185 11.776 107.485 11.776C107.945 11.776 108.301 11.668 108.553 11.452C108.805 11.232 108.931 10.918 108.931 10.51C108.931 10.282 108.873 10.096 108.757 9.952C108.645 9.808 108.495 9.688 108.307 9.592C108.119 9.492 107.905 9.408 107.665 9.34C107.425 9.272 107.181 9.198 106.933 9.118C106.685 9.038 106.441 8.942 106.201 8.83C105.961 8.718 105.747 8.572 105.559 8.392C105.371 8.212 105.219 7.988 105.103 7.72C104.991 7.448 104.935 7.114 104.935 6.718C104.935 6.402 104.997 6.094 105.121 5.794C105.249 5.494 105.433 5.228 105.673 4.996C105.913 4.764 106.209 4.578 106.561 4.438C106.913 4.298 107.317 4.228 107.773 4.228C108.285 4.228 108.757 4.308 109.189 4.468C109.621 4.628 109.989 4.852 110.293 5.14L109.891 5.902ZM119.171 4.324V13H117.551V9.208H113.477V13H111.857V4.324H113.477V8.056H117.551V4.324H119.171ZM129.377 8.662C129.377 9.298 129.271 9.888 129.059 10.432C128.851 10.972 128.555 11.44 128.171 11.836C127.787 12.232 127.325 12.542 126.785 12.766C126.245 12.986 125.645 13.096 124.985 13.096C124.329 13.096 123.731 12.986 123.191 12.766C122.651 12.542 122.187 12.232 121.799 11.836C121.415 11.44 121.117 10.972 120.905 10.432C120.693 9.888 120.587 9.298 120.587 8.662C120.587 8.026 120.693 7.438 120.905 6.898C121.117 6.354 121.415 5.884 121.799 5.488C122.187 5.092 122.651 4.784 123.191 4.564C123.731 4.34 124.329 4.228 124.985 4.228C125.425 4.228 125.839 4.28 126.227 4.384C126.615 4.484 126.971 4.628 127.295 4.816C127.619 5 127.909 5.226 128.165 5.494C128.425 5.758 128.645 6.054 128.825 6.382C129.005 6.71 129.141 7.066 129.233 7.45C129.329 7.834 129.377 8.238 129.377 8.662ZM127.727 8.662C127.727 8.186 127.663 7.76 127.535 7.384C127.407 7.004 127.225 6.682 126.989 6.418C126.753 6.154 126.465 5.952 126.125 5.812C125.789 5.672 125.409 5.602 124.985 5.602C124.561 5.602 124.179 5.672 123.839 5.812C123.503 5.952 123.215 6.154 122.975 6.418C122.739 6.682 122.557 7.004 122.429 7.384C122.301 7.76 122.237 8.186 122.237 8.662C122.237 9.138 122.301 9.566 122.429 9.946C122.557 10.322 122.739 10.642 122.975 10.906C123.215 11.166 123.503 11.366 123.839 11.506C124.179 11.646 124.561 11.716 124.985 11.716C125.409 11.716 125.789 11.646 126.125 11.506C126.465 11.366 126.753 11.166 126.989 10.906C127.225 10.642 127.407 10.322 127.535 9.946C127.663 9.566 127.727 9.138 127.727 8.662ZM142.162 4.324L139.468 13H138.01L136.114 7.072C136.062 6.928 136.014 6.752 135.97 6.544C135.946 6.644 135.922 6.738 135.898 6.826C135.874 6.914 135.848 6.996 135.82 7.072L133.906 13H132.442L129.754 4.324H131.104C131.244 4.324 131.36 4.358 131.452 4.426C131.548 4.49 131.612 4.578 131.644 4.69L133.12 9.88C133.152 10.008 133.182 10.148 133.21 10.3C133.242 10.448 133.274 10.604 133.306 10.768C133.338 10.6 133.372 10.442 133.408 10.294C133.448 10.146 133.49 10.008 133.534 9.88L135.238 4.69C135.27 4.598 135.332 4.514 135.424 4.438C135.52 4.362 135.636 4.324 135.772 4.324H136.246C136.386 4.324 136.5 4.358 136.588 4.426C136.676 4.494 136.742 4.582 136.786 4.69L138.484 9.88C138.568 10.128 138.644 10.414 138.712 10.738C138.764 10.422 138.822 10.136 138.886 9.88L140.362 4.69C140.386 4.59 140.446 4.504 140.542 4.432C140.642 4.36 140.76 4.324 140.896 4.324H142.162ZM155.472 4.324V13H154.05V7.396C154.05 7.172 154.062 6.93 154.086 6.67L151.464 11.596C151.34 11.832 151.15 11.95 150.894 11.95H150.666C150.41 11.95 150.22 11.832 150.096 11.596L147.444 6.652C147.456 6.784 147.466 6.914 147.474 7.042C147.482 7.17 147.486 7.288 147.486 7.396V13H146.064V4.324H147.282C147.354 4.324 147.416 4.326 147.468 4.33C147.52 4.334 147.566 4.344 147.606 4.36C147.65 4.376 147.688 4.402 147.72 4.438C147.756 4.474 147.79 4.522 147.822 4.582L150.42 9.4C150.488 9.528 150.55 9.66 150.606 9.796C150.666 9.932 150.724 10.072 150.78 10.216C150.836 10.068 150.894 9.926 150.954 9.79C151.014 9.65 151.078 9.516 151.146 9.388L153.708 4.582C153.74 4.522 153.774 4.474 153.81 4.438C153.846 4.402 153.884 4.376 153.924 4.36C153.968 4.344 154.016 4.334 154.068 4.33C154.12 4.326 154.182 4.324 154.254 4.324H155.472ZM165.681 8.662C165.681 9.298 165.575 9.888 165.363 10.432C165.155 10.972 164.859 11.44 164.475 11.836C164.091 12.232 163.629 12.542 163.089 12.766C162.549 12.986 161.949 13.096 161.289 13.096C160.633 13.096 160.035 12.986 159.495 12.766C158.955 12.542 158.491 12.232 158.103 11.836C157.719 11.44 157.421 10.972 157.209 10.432C156.997 9.888 156.891 9.298 156.891 8.662C156.891 8.026 156.997 7.438 157.209 6.898C157.421 6.354 157.719 5.884 158.103 5.488C158.491 5.092 158.955 4.784 159.495 4.564C160.035 4.34 160.633 4.228 161.289 4.228C161.729 4.228 162.143 4.28 162.531 4.384C162.919 4.484 163.275 4.628 163.599 4.816C163.923 5 164.213 5.226 164.469 5.494C164.729 5.758 164.949 6.054 165.129 6.382C165.309 6.71 165.445 7.066 165.537 7.45C165.633 7.834 165.681 8.238 165.681 8.662ZM164.031 8.662C164.031 8.186 163.967 7.76 163.839 7.384C163.711 7.004 163.529 6.682 163.293 6.418C163.057 6.154 162.769 5.952 162.429 5.812C162.093 5.672 161.713 5.602 161.289 5.602C160.865 5.602 160.483 5.672 160.143 5.812C159.807 5.952 159.519 6.154 159.279 6.418C159.043 6.682 158.861 7.004 158.733 7.384C158.605 7.76 158.541 8.186 158.541 8.662C158.541 9.138 158.605 9.566 158.733 9.946C158.861 10.322 159.043 10.642 159.279 10.906C159.519 11.166 159.807 11.366 160.143 11.506C160.483 11.646 160.865 11.716 161.289 11.716C161.713 11.716 162.093 11.646 162.429 11.506C162.769 11.366 163.057 11.166 163.293 10.906C163.529 10.642 163.711 10.322 163.839 9.946C163.967 9.566 164.031 9.138 164.031 8.662ZM169.721 8.452C170.025 8.452 170.289 8.414 170.513 8.338C170.741 8.262 170.927 8.158 171.071 8.026C171.219 7.89 171.329 7.73 171.401 7.546C171.473 7.362 171.509 7.16 171.509 6.94C171.509 6.5 171.363 6.162 171.071 5.926C170.783 5.69 170.341 5.572 169.745 5.572H168.713V8.452H169.721ZM173.873 13H172.415C172.139 13 171.939 12.892 171.815 12.676L169.991 9.898C169.923 9.794 169.847 9.72 169.763 9.676C169.683 9.632 169.563 9.61 169.403 9.61H168.713V13H167.099V4.324H169.745C170.333 4.324 170.837 4.386 171.257 4.51C171.681 4.63 172.027 4.8 172.295 5.02C172.567 5.24 172.767 5.504 172.895 5.812C173.023 6.116 173.087 6.452 173.087 6.82C173.087 7.112 173.043 7.388 172.955 7.648C172.871 7.908 172.747 8.144 172.583 8.356C172.423 8.568 172.223 8.754 171.983 8.914C171.747 9.074 171.477 9.2 171.173 9.292C171.277 9.352 171.373 9.424 171.461 9.508C171.549 9.588 171.629 9.684 171.701 9.796L173.873 13ZM176.43 5.608V8.014H179.466V9.256H176.43V11.71H180.282V13H174.81V4.324H180.282V5.608H176.43ZM190.588 10.954C190.676 10.954 190.754 10.988 190.822 11.056L191.458 11.746C191.106 12.182 190.672 12.516 190.156 12.748C189.644 12.98 189.028 13.096 188.308 13.096C187.664 13.096 187.084 12.986 186.568 12.766C186.056 12.546 185.618 12.24 185.254 11.848C184.89 11.456 184.61 10.988 184.414 10.444C184.222 9.9 184.126 9.306 184.126 8.662C184.126 8.01 184.23 7.414 184.438 6.874C184.646 6.33 184.938 5.862 185.314 5.47C185.694 5.078 186.146 4.774 186.67 4.558C187.194 4.338 187.774 4.228 188.41 4.228C189.042 4.228 189.602 4.332 190.09 4.54C190.582 4.748 191 5.02 191.344 5.356L190.804 6.106C190.772 6.154 190.73 6.196 190.678 6.232C190.63 6.268 190.562 6.286 190.474 6.286C190.414 6.286 190.352 6.27 190.288 6.238C190.224 6.202 190.154 6.16 190.078 6.112C190.002 6.06 189.914 6.004 189.814 5.944C189.714 5.884 189.598 5.83 189.466 5.782C189.334 5.73 189.18 5.688 189.004 5.656C188.832 5.62 188.632 5.602 188.404 5.602C188.016 5.602 187.66 5.672 187.336 5.812C187.016 5.948 186.74 6.148 186.508 6.412C186.276 6.672 186.096 6.992 185.968 7.372C185.84 7.748 185.776 8.178 185.776 8.662C185.776 9.15 185.844 9.584 185.98 9.964C186.12 10.344 186.308 10.664 186.544 10.924C186.78 11.184 187.058 11.384 187.378 11.524C187.698 11.66 188.042 11.728 188.41 11.728C188.63 11.728 188.828 11.716 189.004 11.692C189.184 11.668 189.348 11.63 189.496 11.578C189.648 11.526 189.79 11.46 189.922 11.38C190.058 11.296 190.192 11.194 190.324 11.074C190.364 11.038 190.406 11.01 190.45 10.99C190.494 10.966 190.54 10.954 190.588 10.954ZM200.65 8.662C200.65 9.298 200.544 9.888 200.332 10.432C200.124 10.972 199.828 11.44 199.444 11.836C199.06 12.232 198.598 12.542 198.058 12.766C197.518 12.986 196.918 13.096 196.258 13.096C195.602 13.096 195.004 12.986 194.464 12.766C193.924 12.542 193.46 12.232 193.072 11.836C192.688 11.44 192.39 10.972 192.178 10.432C191.966 9.888 191.86 9.298 191.86 8.662C191.86 8.026 191.966 7.438 192.178 6.898C192.39 6.354 192.688 5.884 193.072 5.488C193.46 5.092 193.924 4.784 194.464 4.564C195.004 4.34 195.602 4.228 196.258 4.228C196.698 4.228 197.112 4.28 197.5 4.384C197.888 4.484 198.244 4.628 198.568 4.816C198.892 5 199.182 5.226 199.438 5.494C199.698 5.758 199.918 6.054 200.098 6.382C200.278 6.71 200.414 7.066 200.506 7.45C200.602 7.834 200.65 8.238 200.65 8.662ZM199 8.662C199 8.186 198.936 7.76 198.808 7.384C198.68 7.004 198.498 6.682 198.262 6.418C198.026 6.154 197.738 5.952 197.398 5.812C197.062 5.672 196.682 5.602 196.258 5.602C195.834 5.602 195.452 5.672 195.112 5.812C194.776 5.952 194.488 6.154 194.248 6.418C194.012 6.682 193.83 7.004 193.702 7.384C193.574 7.76 193.51 8.186 193.51 8.662C193.51 9.138 193.574 9.566 193.702 9.946C193.83 10.322 194.012 10.642 194.248 10.906C194.488 11.166 194.776 11.366 195.112 11.506C195.452 11.646 195.834 11.716 196.258 11.716C196.682 11.716 197.062 11.646 197.398 11.506C197.738 11.366 198.026 11.166 198.262 10.906C198.498 10.642 198.68 10.322 198.808 9.946C198.936 9.566 199 9.138 199 8.662ZM211.476 4.324V13H210.054V7.396C210.054 7.172 210.066 6.93 210.09 6.67L207.468 11.596C207.344 11.832 207.154 11.95 206.898 11.95H206.67C206.414 11.95 206.224 11.832 206.1 11.596L203.448 6.652C203.46 6.784 203.47 6.914 203.478 7.042C203.486 7.17 203.49 7.288 203.49 7.396V13H202.068V4.324H203.286C203.358 4.324 203.42 4.326 203.472 4.33C203.524 4.334 203.57 4.344 203.61 4.36C203.654 4.376 203.692 4.402 203.724 4.438C203.76 4.474 203.794 4.522 203.826 4.582L206.424 9.4C206.492 9.528 206.554 9.66 206.61 9.796C206.67 9.932 206.728 10.072 206.784 10.216C206.84 10.068 206.898 9.926 206.958 9.79C207.018 9.65 207.082 9.516 207.15 9.388L209.712 4.582C209.744 4.522 209.778 4.474 209.814 4.438C209.85 4.402 209.888 4.376 209.928 4.36C209.972 4.344 210.02 4.334 210.072 4.33C210.124 4.326 210.186 4.324 210.258 4.324H211.476ZM222.819 4.324V13H221.397V7.396C221.397 7.172 221.409 6.93 221.433 6.67L218.811 11.596C218.687 11.832 218.497 11.95 218.241 11.95H218.013C217.757 11.95 217.567 11.832 217.443 11.596L214.791 6.652C214.803 6.784 214.813 6.914 214.821 7.042C214.829 7.17 214.833 7.288 214.833 7.396V13H213.411V4.324H214.629C214.701 4.324 214.763 4.326 214.815 4.33C214.867 4.334 214.913 4.344 214.953 4.36C214.997 4.376 215.035 4.402 215.067 4.438C215.103 4.474 215.137 4.522 215.169 4.582L217.767 9.4C217.835 9.528 217.897 9.66 217.953 9.796C218.013 9.932 218.071 10.072 218.127 10.216C218.183 10.068 218.241 9.926 218.301 9.79C218.361 9.65 218.425 9.516 218.493 9.388L221.055 4.582C221.087 4.522 221.121 4.474 221.157 4.438C221.193 4.402 221.231 4.376 221.271 4.36C221.315 4.344 221.363 4.334 221.415 4.33C221.467 4.326 221.529 4.324 221.601 4.324H222.819ZM226.375 5.608V8.014H229.411V9.256H226.375V11.71H230.227V13H224.755V4.324H230.227V5.608H226.375ZM238.971 4.324V13H238.143C238.015 13 237.907 12.98 237.819 12.94C237.735 12.896 237.653 12.824 237.573 12.724L233.043 6.94C233.067 7.204 233.079 7.448 233.079 7.672V13H231.657V4.324H232.503C232.571 4.324 232.629 4.328 232.677 4.336C232.729 4.34 232.773 4.352 232.809 4.372C232.849 4.388 232.887 4.414 232.923 4.45C232.959 4.482 232.999 4.526 233.043 4.582L237.591 10.39C237.579 10.25 237.569 10.112 237.561 9.976C237.553 9.84 237.549 9.714 237.549 9.598V4.324H238.971ZM246.964 5.65H244.348V13H242.734V5.65H240.118V4.324H246.964V5.65ZM252.695 5.902C252.647 5.986 252.595 6.048 252.539 6.088C252.487 6.124 252.421 6.142 252.341 6.142C252.257 6.142 252.165 6.112 252.065 6.052C251.969 5.988 251.853 5.918 251.717 5.842C251.581 5.766 251.421 5.698 251.237 5.638C251.057 5.574 250.843 5.542 250.595 5.542C250.371 5.542 250.175 5.57 250.007 5.626C249.839 5.678 249.697 5.752 249.581 5.848C249.469 5.944 249.385 6.06 249.329 6.196C249.273 6.328 249.245 6.474 249.245 6.634C249.245 6.838 249.301 7.008 249.413 7.144C249.529 7.28 249.681 7.396 249.869 7.492C250.057 7.588 250.271 7.674 250.511 7.75C250.751 7.826 250.997 7.908 251.249 7.996C251.501 8.08 251.747 8.18 251.987 8.296C252.227 8.408 252.441 8.552 252.629 8.728C252.817 8.9 252.967 9.112 253.079 9.364C253.195 9.616 253.253 9.922 253.253 10.282C253.253 10.674 253.185 11.042 253.049 11.386C252.917 11.726 252.721 12.024 252.461 12.28C252.205 12.532 251.891 12.732 251.519 12.88C251.147 13.024 250.721 13.096 250.241 13.096C249.965 13.096 249.693 13.068 249.425 13.012C249.157 12.96 248.899 12.884 248.651 12.784C248.407 12.684 248.177 12.564 247.961 12.424C247.745 12.284 247.553 12.128 247.385 11.956L247.859 11.182C247.899 11.126 247.951 11.08 248.015 11.044C248.079 11.004 248.147 10.984 248.219 10.984C248.319 10.984 248.427 11.026 248.543 11.11C248.659 11.19 248.797 11.28 248.957 11.38C249.117 11.48 249.303 11.572 249.515 11.656C249.731 11.736 249.989 11.776 250.289 11.776C250.749 11.776 251.105 11.668 251.357 11.452C251.609 11.232 251.735 10.918 251.735 10.51C251.735 10.282 251.677 10.096 251.561 9.952C251.449 9.808 251.299 9.688 251.111 9.592C250.923 9.492 250.709 9.408 250.469 9.34C250.229 9.272 249.985 9.198 249.737 9.118C249.489 9.038 249.245 8.942 249.005 8.83C248.765 8.718 248.551 8.572 248.363 8.392C248.175 8.212 248.023 7.988 247.907 7.72C247.795 7.448 247.739 7.114 247.739 6.718C247.739 6.402 247.801 6.094 247.925 5.794C248.053 5.494 248.237 5.228 248.477 4.996C248.717 4.764 249.013 4.578 249.365 4.438C249.717 4.298 250.121 4.228 250.577 4.228C251.089 4.228 251.561 4.308 251.993 4.468C252.425 4.628 252.793 4.852 253.097 5.14L252.695 5.902Z" fill="#2F3846"/>
</svg>
