<svg width="16" height="17" viewBox="0 0 16 17" fill="none" xmlns="http://www.w3.org/2000/svg">
<path d="M7.998 5.7133C6.52901 5.7133 5.3302 6.91211 5.3302 8.3811C5.3302 9.8501 6.52901 11.0489 7.998 11.0489C9.46699 11.0489 10.6658 9.8501 10.6658 8.3811C10.6658 6.91211 9.46699 5.7133 7.998 5.7133ZM15.9994 8.3811C15.9994 7.27636 16.0094 6.18162 15.9474 5.07887C15.8853 3.79801 15.5931 2.66124 14.6565 1.72461C13.7179 0.785972 12.5831 0.495776 11.3022 0.433734C10.1975 0.371692 9.10274 0.381699 8 0.381699C6.89525 0.381699 5.80051 0.371692 4.69777 0.433734C3.4169 0.495776 2.28014 0.787973 1.3435 1.72461C0.404868 2.66324 0.114672 3.79801 0.0526304 5.07887C-0.0094115 6.18362 0.000595291 7.27836 0.000595291 8.3811C0.000595291 9.48385 -0.0094115 10.5806 0.0526304 11.6833C0.114672 12.9642 0.40687 14.101 1.3435 15.0376C2.28214 15.9762 3.4169 16.2664 4.69777 16.3285C5.80252 16.3905 6.89725 16.3805 8 16.3805C9.10475 16.3805 10.1995 16.3905 11.3022 16.3285C12.5831 16.2664 13.7199 15.9742 14.6565 15.0376C15.5951 14.099 15.8853 12.9642 15.9474 11.6833C16.0114 10.5806 15.9994 9.48585 15.9994 8.3811ZM7.998 12.4859C5.72646 12.4859 3.89323 10.6526 3.89323 8.3811C3.89323 6.10957 5.72646 4.27633 7.998 4.27633C10.2695 4.27633 12.1028 6.10957 12.1028 8.3811C12.1028 10.6526 10.2695 12.4859 7.998 12.4859ZM12.2709 5.06686C11.7405 5.06686 11.3122 4.63858 11.3122 4.10822C11.3122 3.57786 11.7405 3.14957 12.2709 3.14957C12.8012 3.14957 13.2295 3.57786 13.2295 4.10822C13.2297 4.23415 13.205 4.35888 13.1569 4.47526C13.1088 4.59164 13.0382 4.69739 12.9491 4.78644C12.8601 4.87549 12.7543 4.94609 12.6379 4.99421C12.5216 5.04233 12.3968 5.06702 12.2709 5.06686Z" fill="#2F3846"/>
</svg>
