<svg width="17" height="14" viewBox="0 0 17 14" fill="none" xmlns="http://www.w3.org/2000/svg">
<path d="M17 1.92534C16.3748 2.17919 15.6945 2.36188 14.9938 2.43303C15.7213 2.02618 16.2661 1.38342 16.526 0.625342C15.8433 1.00763 15.0954 1.27569 14.3155 1.41765C13.9895 1.08962 13.5952 0.828303 13.1573 0.649972C12.7193 0.47164 12.247 0.380119 11.7699 0.381111C9.8392 0.381111 8.2865 1.85419 8.2865 3.66188C8.2865 3.91572 8.31919 4.16957 8.37231 4.4138C5.48143 4.27149 2.90314 2.97149 1.18904 0.981111C0.876713 1.48326 0.713043 2.05501 0.715058 2.63688C0.715058 3.77534 1.33001 4.77919 2.26776 5.36957C1.71513 5.34908 1.17544 5.2061 0.692585 4.95226V4.99265C0.692585 6.58688 1.8898 7.90803 3.4854 8.21188C3.18581 8.28513 2.87761 8.3226 2.56808 8.32341C2.34131 8.32341 2.12679 8.30226 1.91023 8.27341C2.35152 9.57341 3.63658 10.5176 5.16681 10.5484C3.96959 11.4311 2.47002 11.9503 0.841726 11.9503C0.549573 11.9503 0.279894 11.9407 0 11.91C1.54453 12.8426 3.37712 13.3811 5.35068 13.3811C11.7576 13.3811 15.2634 8.38495 15.2634 4.04842C15.2634 3.90611 15.2634 3.7638 15.2532 3.62149C15.9315 3.15419 16.526 2.57534 17 1.92534Z" fill="#2F3846"/>
</svg>
