<svg width="17" height="13" viewBox="0 0 17 13" fill="none" xmlns="http://www.w3.org/2000/svg">
<path d="M17 1.54424C16.3748 1.79808 15.6945 1.98078 14.9938 2.05193C15.7213 1.64508 16.2661 1.00231 16.526 0.244239C15.8433 0.626525 15.0954 0.894591 14.3155 1.03655C13.9895 0.70852 13.5952 0.4472 13.1573 0.268868C12.7193 0.0905369 12.247 -0.000984199 11.7699 7.98154e-06C9.8392 7.98154e-06 8.2865 1.47308 8.2865 3.28078C8.2865 3.53462 8.31919 3.78847 8.37231 4.0327C5.48143 3.89039 2.90314 2.59039 1.18904 0.600008C0.876713 1.10215 0.713043 1.6739 0.715058 2.25578C0.715058 3.39424 1.33001 4.39808 2.26776 4.98847C1.71513 4.96798 1.17544 4.825 0.692585 4.57116V4.61154C0.692585 6.20577 1.8898 7.52693 3.4854 7.83077C3.18581 7.90402 2.87761 7.9415 2.56808 7.94231C2.34131 7.94231 2.12679 7.92116 1.91023 7.89231C2.35152 9.19231 3.63658 10.1365 5.16681 10.1673C3.96959 11.05 2.47002 11.5692 0.841726 11.5692C0.549573 11.5692 0.279894 11.5596 0 11.5288C1.54453 12.4615 3.37712 13 5.35068 13C11.7576 13 15.2634 8.00385 15.2634 3.66731C15.2634 3.52501 15.2634 3.3827 15.2532 3.24039C15.9315 2.77308 16.526 2.19424 17 1.54424Z" fill="white"/>
</svg>
