<svg width="16" height="12" viewBox="0 0 16 12" fill="none" xmlns="http://www.w3.org/2000/svg">
<path d="M15.6661 1.76426C15.575 1.42262 15.3964 1.11108 15.1482 0.860791C14.9 0.610507 14.5909 0.430265 14.2518 0.338104C13.0036 6.86045e-08 8 0 8 0C8 0 2.99643 -6.86045e-08 1.74821 0.336306C1.40897 0.428168 1.09969 0.608309 0.851439 0.85864C0.603191 1.10897 0.424713 1.42068 0.333929 1.76246C-6.81196e-08 3.02136 0 5.64706 0 5.64706C0 5.64706 -6.81196e-08 8.27276 0.333929 9.52986C0.517857 10.2241 1.06071 10.7708 1.74821 10.956C2.99643 11.2941 8 11.2941 8 11.2941C8 11.2941 13.0036 11.2941 14.2518 10.956C14.9411 10.7708 15.4821 10.2241 15.6661 9.52986C16 8.27276 16 5.64706 16 5.64706C16 5.64706 16 3.02136 15.6661 1.76426ZM6.41071 8.05695V3.23717L10.5536 5.62907L6.41071 8.05695Z" fill="white"/>
</svg>
