<svg width="16" height="12" viewBox="0 0 16 12" fill="none" xmlns="http://www.w3.org/2000/svg">
<path d="M15.6661 2.14536C15.575 1.80373 15.3964 1.49218 15.1482 1.24189C14.9 0.99161 14.5909 0.811368 14.2518 0.719208C13.0036 0.381104 8 0.381104 8 0.381104C8 0.381104 2.99643 0.381103 1.74821 0.717409C1.40897 0.809271 1.09969 0.989413 0.851439 1.23974C0.603191 1.49007 0.424713 1.80178 0.333929 2.14356C-6.81196e-08 3.40246 0 6.02816 0 6.02816C0 6.02816 -6.81196e-08 8.65386 0.333929 9.91096C0.517857 10.6052 1.06071 11.1519 1.74821 11.3371C2.99643 11.6752 8 11.6752 8 11.6752C8 11.6752 13.0036 11.6752 14.2518 11.3371C14.9411 11.1519 15.4821 10.6052 15.6661 9.91096C16 8.65386 16 6.02816 16 6.02816C16 6.02816 16 3.40246 15.6661 2.14536ZM6.41071 8.43805V3.61827L10.5536 6.01018L6.41071 8.43805Z" fill="#2F3846"/>
</svg>
