<?xml version="1.0" standalone="no"?>
<!DOCTYPE svg PUBLIC "-//W3C//DTD SVG 20010904//EN"
 "http://www.w3.org/TR/2001/REC-SVG-20010904/DTD/svg10.dtd">
<svg version="1.0" xmlns="http://www.w3.org/2000/svg"
 width="656.000000pt" height="656.000000pt" viewBox="0 0 656.000000 656.000000"
 preserveAspectRatio="xMidYMid meet">
<metadata>
Created by potrace 1.11, written by Peter Selinger 2001-2013
</metadata>
<g transform="translate(0.000000,656.000000) scale(0.100000,-0.100000)"
fill="#000000" stroke="none">
<path d="M1709 6556 c-2 -2 -29 -6 -59 -10 -136 -15 -160 -19 -161 -25 -30
-149 -42 -472 -24 -636 8 -75 8 -73 20 -150 11 -73 12 -76 25 -125 7 -25 14
-56 16 -70 3 -14 8 -34 13 -45 4 -11 16 -45 26 -75 26 -80 97 -230 141 -297
74 -113 141 -188 258 -288 l58 -50 -39 -1 c-76 -1 -201 -20 -318 -50 -11 -3
-24 -6 -30 -8 -79 -19 -260 -98 -375 -164 -336 -192 -620 -507 -767 -853 -66
-155 -114 -333 -130 -483 -14 -128 -7 -439 12 -536 3 -14 7 -46 10 -71 6 -49
8 -61 24 -129 5 -24 8 -46 6 -49 -3 -2 0 -9 5 -16 5 -6 11 -26 12 -44 1 -18 6
-35 10 -37 4 -3 8 -13 8 -23 0 -26 62 -213 116 -348 39 -101 154 -337 212
-438 226 -394 606 -833 938 -1085 32 -25 60 -48 62 -52 2 -5 10 -8 17 -8 7 0
15 -4 17 -9 2 -7 180 -125 253 -168 35 -20 198 -99 235 -113 19 -7 40 -16 45
-20 14 -10 188 -58 250 -69 64 -12 322 -7 356 7 15 6 29 9 31 7 2 -3 29 5 59
16 30 11 61 22 69 24 19 4 83 41 134 77 51 37 87 35 144 -4 97 -67 174 -99
294 -121 90 -17 271 -20 343 -6 28 6 61 12 75 15 39 7 175 51 217 69 130 57
366 183 383 204 3 4 19 15 35 25 32 20 213 154 231 171 6 5 38 32 70 60 78 66
295 282 369 369 33 38 67 77 76 86 9 10 36 44 60 76 23 33 46 61 49 64 29 21
242 354 311 488 28 53 54 102 58 107 4 6 14 26 21 45 8 19 28 67 46 105 17 39
43 104 58 145 15 41 29 82 33 90 3 8 7 17 8 20 0 3 9 32 20 65 10 33 19 62 20
65 2 11 26 107 35 135 4 17 11 46 14 65 3 19 9 46 12 60 3 14 7 39 9 55 2 17
5 44 8 60 6 34 17 125 23 182 4 48 4 271 0 338 -14 222 -113 532 -228 720 -50
82 -69 109 -122 180 -219 294 -534 520 -882 634 -120 39 -133 42 -281 65 -113
17 -398 13 -588 -9 -89 -10 -140 -17 -145 -20 -3 -2 -24 -6 -46 -9 -55 -9 -72
-12 -124 -26 -95 -24 -237 -73 -281 -95 -16 -9 -34 -13 -40 -10 -24 15 18 226
67 332 33 73 168 281 191 296 7 4 13 12 13 17 0 6 8 20 19 32 10 13 56 68 101
123 46 55 134 151 196 214 90 90 111 116 101 126 -7 7 -24 27 -39 46 -14 19
-35 44 -45 55 -10 12 -58 72 -108 132 -49 61 -96 111 -103 111 -14 1 -251
-232 -317 -312 -22 -26 -49 -58 -60 -71 -11 -12 -38 -46 -60 -74 -43 -56 -55
-62 -55 -33 0 11 -4 23 -10 26 -5 3 -10 15 -10 26 0 10 -4 27 -9 37 -4 9 -26
55 -47 101 -131 286 -358 502 -654 624 -89 37 -197 73 -240 81 -14 2 -32 7
-40 10 -8 3 -28 7 -45 10 -16 3 -39 7 -50 9 -11 3 -45 8 -75 12 -30 4 -64 10
-75 12 -23 6 -461 14 -466 9z m434 -490 c20 -3 52 -8 70 -11 109 -15 257 -60
351 -107 125 -63 199 -124 272 -223 24 -33 49 -66 54 -72 6 -7 11 -15 11 -18
0 -2 10 -28 23 -57 24 -55 55 -141 61 -169 2 -9 8 -33 14 -55 15 -51 38 -203
37 -237 -1 -15 1 -27 4 -27 3 0 5 -21 4 -46 0 -49 -13 -64 -48 -59 -12 2 -55
6 -96 9 -41 3 -88 8 -105 11 -47 8 -99 18 -110 21 -5 2 -23 6 -40 9 -74 15
-274 93 -295 115 -3 3 -25 18 -49 34 -162 105 -287 325 -335 591 -3 17 -8 41
-11 55 -6 27 -14 115 -18 197 l-3 53 86 -5 c47 -2 102 -6 123 -9z m182 -1771
c208 -19 291 -34 432 -80 122 -40 240 -101 329 -171 43 -34 158 -139 187 -171
12 -13 28 -23 36 -23 9 0 43 26 77 58 113 106 140 129 190 165 47 34 205 117
228 121 6 1 16 4 21 8 18 11 140 43 200 53 11 2 21 4 23 5 3 3 11 5 65 14 27
4 57 9 66 11 129 25 485 25 589 0 12 -3 30 -7 40 -9 30 -7 115 -33 147 -46 17
-6 30 -11 30 -9 0 1 30 -14 66 -34 196 -103 336 -219 479 -394 14 -17 40 -55
65 -94 5 -9 31 -57 58 -107 60 -117 101 -239 127 -382 10 -56 7 -405 -5 -450
-3 -14 -8 -45 -11 -70 -2 -25 -18 -99 -34 -165 -17 -66 -33 -130 -35 -143 -19
-81 -153 -412 -168 -412 -6 0 -8 -3 -4 -6 11 -11 -158 -309 -225 -399 -4 -5
-42 -57 -85 -115 -42 -58 -81 -110 -87 -116 -6 -6 -31 -36 -56 -65 -57 -69
-312 -324 -369 -369 -24 -19 -49 -39 -55 -45 -21 -19 -131 -101 -176 -130 -25
-17 -46 -33 -48 -37 -2 -5 -10 -8 -18 -8 -8 0 -14 -5 -14 -12 0 -6 -3 -8 -7
-5 -3 4 -14 0 -23 -8 -25 -23 -215 -114 -283 -136 -97 -32 -106 -33 -217 -33
-105 0 -156 11 -192 41 -43 38 -149 89 -221 108 -51 14 -222 14 -276 1 -39 -9
-174 -76 -196 -96 -42 -39 -95 -53 -208 -55 -110 -2 -140 4 -257 47 -108 41
-281 136 -389 215 -73 53 -147 109 -157 118 -6 5 -40 35 -75 65 -234 200 -496
513 -658 787 -39 65 -75 123 -81 130 -5 7 -10 15 -10 19 0 3 -25 57 -55 120
-61 126 -62 128 -111 264 -36 100 -92 297 -99 349 -2 17 -6 38 -9 48 -24 85
-39 422 -23 543 11 84 38 197 58 245 5 11 17 43 28 70 90 233 295 471 536 622
129 81 331 157 455 170 30 3 56 6 57 8 6 4 280 -4 348 -10z"/>
</g>
</svg>
