<svg width="38" height="41" viewBox="0 0 38 41" fill="none" xmlns="http://www.w3.org/2000/svg">
<path fill-rule="evenodd" clip-rule="evenodd" d="M9.14566 1.55762C7.6568 1.37514 7.65674 1.3756 7.65668 1.37608L7.65656 1.37713L7.65626 1.37959L7.65551 1.38587L7.65344 1.40386C7.65182 1.41825 7.64973 1.43739 7.64731 1.46105C7.64246 1.50836 7.63625 1.57387 7.62967 1.65576C7.61652 1.81936 7.60182 2.04937 7.59371 2.3312C7.57757 2.89241 7.58712 3.67206 7.69139 4.54964C7.89427 6.2573 8.48377 8.57355 10.1952 10.2687C10.5048 10.5753 10.8348 10.8455 11.178 11.0836C6.25211 11.1557 0.699219 15.6574 0.699219 22.069C0.699219 27.2295 3.19272 31.9259 6.16275 35.2901C7.65615 36.9817 9.30825 38.3818 10.9054 39.3695C12.4635 40.333 14.1246 41 15.6077 41C16.3399 41 16.9358 40.9226 17.4467 40.7722C17.9753 40.6167 18.3467 40.4021 18.6281 40.2146C18.784 40.1107 18.862 40.0552 18.9094 40.0215C18.9628 39.9835 18.9772 39.9732 19.0204 39.9526C19.0267 39.9496 19.0313 39.9475 19.0447 39.9446C19.0611 39.941 19.1076 39.9328 19.1992 39.9328C19.2908 39.9328 19.3373 39.941 19.3538 39.9446C19.3672 39.9475 19.3717 39.9496 19.378 39.9526C19.4212 39.9732 19.4356 39.9835 19.4891 40.0215C19.5364 40.0552 19.6145 40.1107 19.7703 40.2146C20.0517 40.4021 20.4231 40.6167 20.9517 40.7722C21.4626 40.9226 22.0585 41 22.7908 41C24.2738 41 25.9349 40.333 27.493 39.3695C29.0902 38.3818 30.7423 36.9817 32.2357 35.2901C35.2057 31.9259 37.6992 27.2295 37.6992 22.069C37.6992 15.6053 32.0558 11.0827 27.1006 11.0827C24.6659 11.0827 22.4193 11.3791 20.4921 12.2934C20.5337 11.3866 20.7263 10.4473 21.1916 9.69836C22.6324 7.37946 24.3413 5.69833 24.9428 5.20187L23.0331 2.8882C22.4221 3.39254 21.2247 4.55764 19.99 6.17043C19.6168 4.92976 18.9861 3.63288 17.9201 2.57699C16.2111 0.884317 13.8792 0.302861 12.1614 0.102632C11.2779 -0.000348449 10.4929 -0.00979543 9.92791 0.00615323C9.64418 0.0141618 9.4127 0.028671 9.24816 0.0416436C9.16581 0.0481364 9.09998 0.0542636 9.05251 0.0590364C9.02876 0.0614235 9.00958 0.0634742 8.99519 0.0650656L8.97722 0.0670941L8.97098 0.0678219L8.96752 0.0682331C8.96705 0.0682895 8.9666 0.0683438 9.14566 1.55762ZM10.5897 3.00192C10.9519 3.00817 11.3689 3.03057 11.8141 3.08246C13.2775 3.25303 14.805 3.71412 15.8089 4.70844C16.8103 5.70029 17.2734 7.20672 17.4448 8.64999C17.4963 9.08331 17.519 9.48965 17.5256 9.84376C17.1634 9.83751 16.7463 9.81512 16.3012 9.76323C14.8378 9.59266 13.3102 9.13156 12.3064 8.13725C11.305 7.1454 10.8419 5.63898 10.6704 4.19571C10.619 3.76238 10.5963 3.35604 10.5897 3.00192ZM9.14566 1.55762L8.96752 0.0682331L7.79976 0.208637L7.65668 1.37608L9.14566 1.55762ZM11.2978 14.0827C7.8727 14.0827 3.69922 17.3862 3.69922 22.069C3.69922 26.2761 5.75501 30.2953 8.41174 33.3046C9.73172 34.7998 11.1624 36.0011 12.4833 36.818C13.8434 37.6591 14.9358 38 15.6077 38C16.1324 38 16.4307 37.944 16.5997 37.8943C16.7511 37.8497 16.8454 37.7975 16.9643 37.7182C16.975 37.7111 16.9928 37.6985 17.0165 37.6819C17.1439 37.5921 17.4413 37.3824 17.7253 37.2465C18.1541 37.0413 18.6288 36.9328 19.1992 36.9328C19.7696 36.9328 20.2443 37.0413 20.6732 37.2465C20.9571 37.3824 21.2546 37.5921 21.3819 37.6819C21.4056 37.6985 21.4234 37.7111 21.4341 37.7182C21.553 37.7975 21.6473 37.8497 21.7987 37.8943C21.9677 37.944 22.266 38 22.7908 38C23.4626 38 24.555 37.6591 25.9151 36.818C27.2361 36.0011 28.6667 34.7998 29.9867 33.3046C32.6434 30.2953 34.6992 26.2761 34.6992 22.069C34.6992 17.3862 30.5257 14.0827 27.1006 14.0827C23.8856 14.0827 21.7209 14.6597 20.2199 16.0534L19.1992 17.0012L18.1785 16.0534C16.6775 14.6597 14.5129 14.0827 11.2978 14.0827Z" fill="url(#paint0_linear)"/>
<defs>
<linearGradient id="paint0_linear" x1="2.19922" y1="20.5" x2="36.1992" y2="20.5" gradientUnits="userSpaceOnUse">
<stop stop-color="#56CCF2"/>
<stop offset="1" stop-color="#2D9CDB"/>
</linearGradient>
</defs>
</svg>
